<?xml version="1.0" encoding="utf-8"?>
<!-- Designed by Vexels.com - 2020 All Rights Reserved - https://vexels.com/terms-and-conditions/  -->
<svg version="1.1" id="Capa_1" xmlns="http://www.w3.org/2000/svg" xmlns:xlink="http://www.w3.org/1999/xlink" x="0px" y="0px"
	 viewBox="0 0 1200 1200" enable-background="new 0 0 1200 1200" xml:space="preserve">
<g>
	<linearGradient id="SVGID_1_" gradientUnits="userSpaceOnUse" x1="602.3005" y1="578.5085" x2="598.0212" y2="1117.7081">
		<stop  offset="0.0722" style="stop-color:#0164E1"/>
		<stop  offset="0.9541" style="stop-color:#25B2FE"/>
	</linearGradient>
	<path fill="url(#SVGID_1_)" d="M977.158,639.141c-14.679-16.892-23.936-23.008-43.476-23.008c-19.479,0-28.704,6.116-43.351,23.008
		c-14.493,16.642-34.485,33.281-69.484,33.281s-50.972-16.638-65.463-33.281c-14.647-16.892-23.873-23.008-43.352-23.008
		c-19.447,0-28.703,6.116-43.318,22.977c-14.493,16.674-34.485,33.312-69.484,33.312c-34.936,0-50.909-16.638-65.369-33.281
		c-14.617-16.892-23.842-23.008-43.289-23.008s-28.704,6.116-43.32,22.977c-14.493,16.674-34.485,33.312-69.484,33.312
		c-34.967,0-50.972-16.608-65.432-33.281c-14.648-16.892-23.872-23.008-43.351-23.008c-19.447,0-28.673,6.116-43.288,22.977
		c-13.322,15.36-31.521,30.521-61.619,32.841v392.492c0,30.375,24.625,55,55,55h199.629c30.375,0,55-24.624,55-55v-281.11
		c0-25.875,20.975-46.852,46.851-46.852h150.74c25.876,0,46.853,20.976,46.853,46.852v281.11c0,30.375,24.624,55,55,55h207.776
		c30.375,0,55-24.624,55-55V672.011C1005.665,669.956,990.651,654.666,977.158,639.141z"/>
	<linearGradient id="SVGID_2_" gradientUnits="userSpaceOnUse" x1="600" y1="687.3342" x2="600" y2="503.6326">
		<stop  offset="0.0519" style="stop-color:#66C7C5"/>
		<stop  offset="0.2401" style="stop-color:#5FC0C7"/>
		<stop  offset="0.5188" style="stop-color:#4BACCE"/>
		<stop  offset="0.8524" style="stop-color:#2A8CD9"/>
		<stop  offset="0.9596" style="stop-color:#1E80DD"/>
	</linearGradient>
	<path fill="url(#SVGID_2_)" d="M1147.818,462.937l1.552,4.227l-549.369,1.786l-549.742-1.778c-0.167,0.797-0.259,1.62-0.259,2.467
		v60.125c0,40.164,14.493,78.979,40.816,109.314l0.027,0.031c14.46,16.674,30.433,33.312,65.401,33.312
		c2.754,0,5.259-0.272,7.833-0.471V549.074h871.848v122.937c2.235,0.152,4.348,0.411,6.758,0.411
		c35.03,0,55.054-16.608,69.547-33.281v-0.001c24.355-27.99,37.771-63.843,37.771-100.947v-68.295
		C1150,467.309,1149.188,464.916,1147.818,462.937z"/>
	<linearGradient id="SVGID_3_" gradientUnits="userSpaceOnUse" x1="600.0005" y1="687.3342" x2="600.0005" y2="503.6326">
		<stop  offset="0.0519" style="stop-color:#66C7C5"/>
		<stop  offset="0.2401" style="stop-color:#5FC0C7"/>
		<stop  offset="0.5188" style="stop-color:#4BACCE"/>
		<stop  offset="0.8524" style="stop-color:#2A8CD9"/>
		<stop  offset="0.9596" style="stop-color:#1E80DD"/>
	</linearGradient>
	<path fill="url(#SVGID_3_)" d="M164.076,549.074V671.95c30.099-2.32,48.297-17.481,61.619-32.841
		c14.616-16.861,23.842-22.977,43.288-22.977c19.479,0,28.703,6.116,43.351,23.008c14.46,16.673,30.464,33.281,65.432,33.281
		c34.999,0,54.991-16.638,69.484-33.312c14.616-16.861,23.872-22.977,43.32-22.977s28.673,6.116,43.289,23.008
		c14.46,16.642,30.433,33.281,65.369,33.281c34.999,0,54.991-16.638,69.484-33.312c14.616-16.861,23.872-22.977,43.318-22.977
		c19.479,0,28.705,6.116,43.352,23.008c14.492,16.642,30.464,33.281,65.463,33.281s54.991-16.638,69.484-33.281
		c14.647-16.892,23.872-23.008,43.351-23.008c19.54,0,28.797,6.116,43.476,23.008c13.494,15.526,28.508,30.815,58.767,32.87V549.074
		H164.076z"/>
	<linearGradient id="SVGID_4_" gradientUnits="userSpaceOnUse" x1="140.5246" y1="274.7539" x2="1045.0251" y2="274.7539">
		<stop  offset="0.0519" style="stop-color:#66C7C5"/>
		<stop  offset="0.2401" style="stop-color:#5FC0C7"/>
		<stop  offset="0.5188" style="stop-color:#4BACCE"/>
		<stop  offset="0.8524" style="stop-color:#2A8CD9"/>
		<stop  offset="0.9596" style="stop-color:#1E80DD"/>
	</linearGradient>
	<path fill="url(#SVGID_4_)" d="M1147.818,462.937l-125.635-342.15c-8.874-24.166-31.883-40.228-57.626-40.228H600.001H235.405
		c-25.724,0-48.72,16.039-57.607,40.179L51.324,464.267l-1.039,2.821c-0.005,0.029-0.02,0.054-0.026,0.084l549.742,1.778
		l549.369-1.786L1147.818,462.937z"/>
</g>
</svg>
